REM DIRINDEX 1\2,1\3,1\4,1\5\6,1\5\7,1\8
REM DIRNAME cjc115,folder01,folder02,folder03,folder04,folder05,folder06,folder07
TITLE ""
FILE "168 Åy168ÅzUnit10 (1897 embark on Å`_1908 stir up).mp3" MP3
  TRACK 01 AUDIO
    TITLE "0:"
    INDEX 01 00:00:00
  TRACK 02 AUDIO
    TITLE "2:cjc115_6574"
    INDEX 01 00:00:07
  TRACK 03 AUDIO
    TITLE "0:"
    INDEX 01 00:01:40
  TRACK 04 AUDIO
    TITLE "3:cjc115_6575"
    INDEX 01 00:01:50
  TRACK 05 AUDIO
    TITLE "0:"
    INDEX 01 00:02:71
  TRACK 06 AUDIO
    TITLE "4:cjc115_6576"
    INDEX 01 00:03:06
  TRACK 07 AUDIO
    TITLE "0:"
    INDEX 01 00:08:01
  TRACK 08 AUDIO
    TITLE "2:cjc115_6577"
    INDEX 01 00:09:08
  TRACK 09 AUDIO
    TITLE "0:"
    INDEX 01 00:10:23
  TRACK 10 AUDIO
    TITLE "3:cjc115_6578"
    INDEX 01 00:10:31
  TRACK 11 AUDIO
    TITLE "0:"
    INDEX 01 00:11:62
  TRACK 12 AUDIO
    TITLE "4:cjc115_6579"
    INDEX 01 00:11:72
  TRACK 13 AUDIO
    TITLE "0:"
    INDEX 01 00:15:48
  TRACK 14 AUDIO
    TITLE "2:cjc115_6580"
    INDEX 01 00:16:57
  TRACK 15 AUDIO
    TITLE "0:"
    INDEX 01 00:18:37
  TRACK 16 AUDIO
    TITLE "3:cjc115_6581"
    INDEX 01 00:18:46
  TRACK 17 AUDIO
    TITLE "0:"
    INDEX 01 00:21:13
  TRACK 18 AUDIO
    TITLE "4:cjc115_6582"
    INDEX 01 00:21:21
  TRACK 19 AUDIO
    TITLE "0:"
    INDEX 01 00:25:66
  TRACK 20 AUDIO
    TITLE "2:cjc115_6583"
    INDEX 01 00:26:73
  TRACK 21 AUDIO
    TITLE "0:"
    INDEX 01 00:29:33
  TRACK 22 AUDIO
    TITLE "3:cjc115_6584"
    INDEX 01 00:29:42
  TRACK 23 AUDIO
    TITLE "0:"
    INDEX 01 00:31:20
  TRACK 24 AUDIO
    TITLE "4:cjc115_6585"
    INDEX 01 00:31:31
  TRACK 25 AUDIO
    TITLE "0:"
    INDEX 01 00:35:51
  TRACK 26 AUDIO
    TITLE "2:cjc115_6586"
    INDEX 01 00:36:62
  TRACK 27 AUDIO
    TITLE "0:"
    INDEX 01 00:38:00
  TRACK 28 AUDIO
    TITLE "3:cjc115_6587"
    INDEX 01 00:38:10
  TRACK 29 AUDIO
    TITLE "0:"
    INDEX 01 00:40:72
  TRACK 30 AUDIO
    TITLE "4:cjc115_6588"
    INDEX 01 00:41:04
  TRACK 31 AUDIO
    TITLE "0:"
    INDEX 01 00:44:69
  TRACK 32 AUDIO
    TITLE "2:cjc115_6589"
    INDEX 01 00:46:06
  TRACK 33 AUDIO
    TITLE "0:"
    INDEX 01 00:47:21
  TRACK 34 AUDIO
    TITLE "3:cjc115_6590"
    INDEX 01 00:47:30
  TRACK 35 AUDIO
    TITLE "0:"
    INDEX 01 00:50:44
  TRACK 36 AUDIO
    TITLE "4:cjc115_6591"
    INDEX 01 00:50:52
  TRACK 37 AUDIO
    TITLE "0:"
    INDEX 01 00:54:01
  TRACK 38 AUDIO
    TITLE "2:cjc115_6592"
    INDEX 01 00:55:08
  TRACK 39 AUDIO
    TITLE "0:"
    INDEX 01 00:56:20
  TRACK 40 AUDIO
    TITLE "3:cjc115_6593"
    INDEX 01 00:56:31
  TRACK 41 AUDIO
    TITLE "0:"
    INDEX 01 00:57:56
  TRACK 42 AUDIO
    TITLE "4:cjc115_6594"
    INDEX 01 00:57:68
  TRACK 43 AUDIO
    TITLE "0:"
    INDEX 01 01:02:32
  TRACK 44 AUDIO
    TITLE "2:cjc115_6595"
    INDEX 01 01:03:41
  TRACK 45 AUDIO
    TITLE "0:"
    INDEX 01 01:05:09
  TRACK 46 AUDIO
    TITLE "3:cjc115_6596"
    INDEX 01 01:05:21
  TRACK 47 AUDIO
    TITLE "0:"
    INDEX 01 01:07:51
  TRACK 48 AUDIO
    TITLE "4:cjc115_6597"
    INDEX 01 01:07:63
  TRACK 49 AUDIO
    TITLE "0:"
    INDEX 01 01:12:19
  TRACK 50 AUDIO
    TITLE "2:cjc115_6598"
    INDEX 01 01:13:30
  TRACK 51 AUDIO
    TITLE "0:"
    INDEX 01 01:14:49
  TRACK 52 AUDIO
    TITLE "3:cjc115_6599"
    INDEX 01 01:14:59
  TRACK 53 AUDIO
    TITLE "0:"
    INDEX 01 01:18:09
  TRACK 54 AUDIO
    TITLE "4:cjc115_6600"
    INDEX 01 01:18:19
  TRACK 55 AUDIO
    TITLE "0:"
    INDEX 01 01:21:29
  TRACK 56 AUDIO
    TITLE "2:cjc115_6601"
    INDEX 01 01:22:39
  TRACK 57 AUDIO
    TITLE "0:"
    INDEX 01 01:23:71
  TRACK 58 AUDIO
    TITLE "3:cjc115_6602"
    INDEX 01 01:24:02
  TRACK 59 AUDIO
    TITLE "0:"
    INDEX 01 01:26:09
  TRACK 60 AUDIO
    TITLE "4:cjc115_6603"
    INDEX 01 01:26:19
  TRACK 61 AUDIO
    TITLE "0:"
    INDEX 01 01:31:02
  TRACK 62 AUDIO
    TITLE "2:cjc115_6604"
    INDEX 01 01:32:06
  TRACK 63 AUDIO
    TITLE "0:"
    INDEX 01 01:33:60
  TRACK 64 AUDIO
    TITLE "3:cjc115_6605"
    INDEX 01 01:33:70
  TRACK 65 AUDIO
    TITLE "0:"
    INDEX 01 01:35:14
  TRACK 66 AUDIO
    TITLE "4:cjc115_6606"
    INDEX 01 01:35:26
  TRACK 67 AUDIO
    TITLE "0:"
    INDEX 01 01:39:53
  TRACK 68 AUDIO
    TITLE "2:cjc115_6607"
    INDEX 01 01:40:64
  TRACK 69 AUDIO
    TITLE "0:"
    INDEX 01 01:42:10
  TRACK 70 AUDIO
    TITLE "3:cjc115_6608"
    INDEX 01 01:42:31
  TRACK 71 AUDIO
    TITLE "0:"
    INDEX 01 01:44:23
  TRACK 72 AUDIO
    TITLE "4:cjc115_6609"
    INDEX 01 01:44:30
  TRACK 73 AUDIO
    TITLE "0:"
    INDEX 01 01:47:68
